<?xml version="1.0" encoding="utf-8"?><!-- Uploaded to: SVG Repo, www.svgrepo.com, Generator: SVG Repo Mixer Tools -->
<svg version="1.1" id="Uploaded to svgrepo.com" xmlns="http://www.w3.org/2000/svg" xmlns:xlink="http://www.w3.org/1999/xlink" 
	 width="800px" height="800px" viewBox="0 0 32 32" xml:space="preserve">
<style type="text/css">
	.linesandangles_een{fill:#111918;}
</style>
<path class="linesandangles_een" d="M16,3C10.125,3,5,10.82,5,18s5.5,11,11,11s11-3.82,11-11S21.875,3,16,3z M16,27
	c-4.335,0-9-2.816-9-9c0-5.144,2.9-10.355,6.339-12.247L15.586,8l-3,3l3,3l-3,3l3.707,3.707l1.414-1.414L15.414,17l3-3l-3-3l3-3
	l-2.952-2.952C15.642,5.028,15.821,5,16,5c4.458,0,9,6.561,9,13C25,24.184,20.335,27,16,27z"/>
</svg>