<?xml version="1.0" encoding="iso-8859-1"?>
<!-- Uploaded to: SVG Repo, www.svgrepo.com, Generator: SVG Repo Mixer Tools -->
<svg version="1.1" id="Layer_1" xmlns="http://www.w3.org/2000/svg" xmlns:xlink="http://www.w3.org/1999/xlink" 
	 viewBox="0 0 512 512" xml:space="preserve">
<g>
	<circle style="fill:#FFD791;" cx="281.653" cy="84.977" r="76.96"/>
	<circle style="fill:#FFD791;" cx="281.653" cy="84.977" r="76.96"/>
</g>
<path style="fill:#F8BE73;" d="M304.1,134.146c-42.504,0-76.96-34.456-76.96-76.96c0-11.849,2.683-23.068,7.466-33.093
	c-18.189,14.076-29.913,36.105-29.913,60.884c0,42.505,34.457,76.96,76.96,76.96c30.656,0,57.12-17.927,69.494-43.867
	C338.137,128.139,321.825,134.146,304.1,134.146z"/>
<rect x="8.017" y="307.307" style="fill:#CCCCCC;" width="239.432" height="196.676"/>
<rect x="247.449" y="307.307" style="fill:#FAFAFA;" width="256.534" height="196.676"/>
<polygon style="fill:#C4DF64;" points="503.983,307.307 247.449,307.307 127.733,204.693 384.267,204.693 "/>
<polygon style="fill:#96CA63;" points="247.449,307.307 8.017,307.307 127.733,204.693 "/>
<rect x="84.977" y="367.165" style="fill:#808080;" width="85.511" height="136.818"/>
<rect x="84.977" y="367.165" style="fill:#666666;" width="25.653" height="136.818"/>
<g>
	<rect x="298.756" y="367.165" style="fill:#6DDAE1;" width="51.307" height="85.511"/>
	<rect x="401.37" y="367.165" style="fill:#6DDAE1;" width="51.307" height="85.511"/>
	<polygon style="fill:#6DDAE1;" points="401.37,367.165 401.37,403.507 437.712,367.165 	"/>
	<polygon style="fill:#6DDAE1;" points="401.37,452.676 413.483,452.676 452.676,413.483 452.676,397.094 401.37,448.401 	"/>
</g>
<g>
	<polygon style="fill:#4FC4D3;" points="401.37,403.507 401.37,448.401 452.676,397.094 452.676,367.165 437.712,367.165 	"/>
	<polygon style="fill:#4FC4D3;" points="452.676,452.676 452.676,413.483 413.483,452.676 	"/>
	<polygon style="fill:#4FC4D3;" points="298.756,403.507 298.756,448.401 350.063,397.094 350.063,367.165 335.098,367.165 	"/>
	<polygon style="fill:#4FC4D3;" points="350.063,452.676 350.063,413.483 310.87,452.676 	"/>
</g>
<path d="M281.653,169.954c46.856,0,84.977-38.121,84.977-84.977c0-16.898-4.95-33.225-14.315-47.215
	c-2.464-3.68-7.443-4.667-11.121-2.203c-3.679,2.463-4.666,7.442-2.203,11.121c7.592,11.343,11.605,24.586,11.605,38.297
	c0,38.015-30.928,68.944-68.944,68.944s-68.944-30.928-68.944-68.944s30.928-68.944,68.944-68.944
	c13.711,0,26.953,4.013,38.294,11.603c3.68,2.463,8.659,1.476,11.122-2.203s1.476-8.659-2.203-11.122
	C314.877,4.949,298.551,0,281.653,0c-46.856,0-84.977,38.121-84.977,84.977S234.797,169.954,281.653,169.954z"/>
<path d="M307.307,54.514c4.427,0,8.017-3.589,8.017-8.017s-3.589-8.017-8.017-8.017H289.67v-9.086c0-4.427-3.589-8.017-8.017-8.017
	c-4.427,0-8.017,3.589-8.017,8.017v9.086h-6.948c-10.314,0-18.706,8.392-18.706,18.706v17.102c0,10.314,8.392,18.706,18.706,18.706
	h6.948v22.447H256c-4.427,0-8.017,3.589-8.017,8.017c0,4.427,3.589,8.017,8.017,8.017h17.637v9.086c0,4.427,3.589,8.017,8.017,8.017
	c4.427,0,8.017-3.589,8.017-8.017v-9.086h6.948c10.314,0,18.706-8.392,18.706-18.706V95.666c0-10.314-8.392-18.706-18.706-18.706
	h-6.948V54.514H307.307z M296.618,92.994c1.473,0,2.672,1.199,2.672,2.672v17.102c0,1.473-1.199,2.672-2.672,2.672h-6.948V92.994
	H296.618z M273.637,76.96h-6.948c-1.473,0-2.672-1.199-2.672-2.672V57.186c0-1.473,1.199-2.672,2.672-2.672h6.948V76.96z"/>
<path d="M511.957,306.476c-0.212-2.014-1.22-3.938-2.757-5.257L389.484,198.606c-1.453-1.245-3.303-1.93-5.217-1.93H127.733
	c-1.865,0-3.798,0.713-5.217,1.93L2.799,301.22C1.048,302.723,0,304.999,0,307.307v119.716c0,4.427,3.589,8.017,8.017,8.017
	s8.017-3.589,8.017-8.017V315.324h223.399v180.643h-60.927V367.165c0-4.427-3.589-8.017-8.017-8.017H84.977
	c-4.427,0-8.017,3.589-8.017,8.017v128.802H16.033v-26.188c0-4.427-3.589-8.017-8.017-8.017S0,465.35,0,469.779v34.205
	C0,508.411,3.589,512,8.017,512h495.967c4.427,0,8.017-3.589,8.017-8.017V307.307C512,307.027,511.985,306.75,511.957,306.476z
	 M29.687,299.29l98.045-84.039l98.045,84.039H29.687z M92.994,495.967V375.182h69.478v120.785H92.994z M255.466,495.967V315.324
	h154.455c4.427,0,8.017-3.589,8.017-8.017c0-4.427-3.589-8.017-8.017-8.017H250.414l-101.01-86.58h231.898l101.01,86.58h-29.635
	c-4.427,0-8.017,3.589-8.017,8.017c0,4.427,3.589,8.017,8.017,8.017h43.29v180.643H255.466z"/>
<path d="M375.716,230.881H213.244c-4.427,0-8.017,3.589-8.017,8.017s3.589,8.017,8.017,8.017h162.472
	c4.427,0,8.017-3.589,8.017-8.017S380.143,230.881,375.716,230.881z"/>
<path d="M350.063,359.148h-51.307c-4.427,0-8.017,3.589-8.017,8.017v85.511c0,4.427,3.589,8.017,8.017,8.017h51.307
	c4.427,0,8.017-3.589,8.017-8.017v-85.511C358.079,362.738,354.49,359.148,350.063,359.148z M342.046,444.66h-35.273v-69.478h35.273
	V444.66z"/>
<path d="M452.676,359.148H401.37c-4.427,0-8.017,3.589-8.017,8.017v85.511c0,4.427,3.589,8.017,8.017,8.017h51.307
	c4.427,0,8.017-3.589,8.017-8.017v-85.511C460.693,362.738,457.104,359.148,452.676,359.148z M444.66,444.66h-35.273v-69.478h35.273
	V444.66z"/>
<path d="M110.63,427.557c-4.427,0-8.017,3.589-8.017,8.017v8.551c0,4.427,3.589,8.017,8.017,8.017c4.427,0,8.017-3.589,8.017-8.017
	v-8.551C118.647,431.147,115.058,427.557,110.63,427.557z"/>
<path d="M94.063,281.653c0,4.427,3.589,8.017,8.017,8.017h51.307c4.427,0,8.017-3.589,8.017-8.017c0-4.427-3.589-8.017-8.017-8.017
	h-51.307C97.652,273.637,94.063,277.226,94.063,281.653z"/>
<path d="M102.614,256c0,4.427,3.589,8.017,8.017,8.017h34.205c4.427,0,8.017-3.589,8.017-8.017c0-4.427-3.589-8.017-8.017-8.017
	H110.63C106.203,247.983,102.614,251.573,102.614,256z"/>
</svg>